<?xml version="1.0" standalone="no"?><!DOCTYPE svg PUBLIC "-//W3C//DTD SVG 1.1//EN" "http://www.w3.org/Graphics/SVG/1.1/DTD/svg11.dtd"><svg t="1747034168716" class="icon" viewBox="0 0 1237 1024" version="1.1" xmlns="http://www.w3.org/2000/svg" p-id="9623" xmlns:xlink="http://www.w3.org/1999/xlink" width="241.6015625" height="200"><path d="M597.333333 640.682667a320 299.818667 0 1 0 640 0 320 299.818667 0 1 0-640 0Z" fill="#C3EF31" p-id="9624"></path><path d="M1040.213333 1013.781333c40.682667 23.594667 68.224 4.928 61.568-41.472l-25.770666-179.626666-192.938667 129.962666 157.141333 91.136z" fill="#C3EF31" p-id="9625"></path><path d="M0 426.069333a469.333333 426.069333 0 1 0 938.666667 0 469.333333 426.069333 0 1 0-938.666667 0Z" fill="#A5D114" p-id="9626"></path><path d="M258.325333 975.189333c-40.96 23.082667-69.205333 3.84-63.146666-42.538666l38.357333-293.546667 282.986667 190.592-258.197334 145.493333z" fill="#A5D114" p-id="9627"></path><path d="M467.626667 551.488a29.866667 29.866667 0 0 1-29.866667-29.866667c0-76.181333 26.176-91.157333 72.448-111.104 5.056-2.176 10.517333-4.522667 16.426667-7.210666 23.061333-10.432 61.952-45.888 72.234666-88.810667 6.698667-27.968 0.362667-53.546667-19.370666-78.186667-35.178667-43.946667-83.562667-48.128-109.141334-46.72-42.88 2.346667-82.389333 22.442667-100.672 51.221334-32.149333 50.602667-10.837333 81.770667-8.298666 85.184a30.122667 30.122667 0 0 1-5.312 41.685333c-12.8 10.005333-31.061333 8.213333-41.344-4.373333-2.154667-2.645333-52.032-65.557333 4.501333-154.538667 28.736-45.205333 85.376-75.413333 147.84-78.826667 63.082667-3.349333 121.130667 21.717333 159.04 69.034667 31.146667 38.869333 41.792 83.626667 30.826667 129.429333-14.378667 59.968-64.021333 110.442667-105.685334 129.301334-6.272 2.837333-12.074667 5.333333-17.429333 7.658666-36.352 15.658667-36.352 15.658667-36.352 56.234667a29.824 29.824 0 0 1-29.845333 29.888z" fill="#FFFFFF" p-id="9628"></path><path d="M426.730667 639.104a42.602667 42.602667 0 1 0 85.205333 0 42.602667 42.602667 0 1 0-85.205333 0Z" fill="#FFFFFF" p-id="9629"></path></svg>