<?xml version="1.0" standalone="no"?><!DOCTYPE svg PUBLIC "-//W3C//DTD SVG 1.1//EN" "http://www.w3.org/Graphics/SVG/1.1/DTD/svg11.dtd"><svg t="1747033443420" class="icon" viewBox="0 0 1024 1024" version="1.1" xmlns="http://www.w3.org/2000/svg" p-id="3769" xmlns:xlink="http://www.w3.org/1999/xlink" width="200" height="200"><path d="M512 64c247.402667 0 448 200.597333 448 448s-200.597333 448-448 448S64 759.402667 64 512 264.597333 64 512 64z m152 628.992a8 8 0 0 0 8-8.384c-4.394667-84.309333-74.496-151.616-160-151.616s-155.605333 67.306667-160 151.616c-0.213333 4.586667 3.413333 8.384 8 8.384h48.106667c4.202667 0 7.786667-3.2 8.106666-7.381333a96.106667 96.106667 0 0 1 191.573334 0 8.085333 8.085333 0 0 0 8.106666 7.381333h48.106667zM304.96 362.666667a74.666667 74.666667 0 0 0 125.952 77.568L304.96 362.666667z m418.346667 0L597.333333 440.234667A74.666667 74.666667 0 0 0 723.285333 362.666667z" fill="#D9DBE0" p-id="3770"></path></svg>